#tb 0: 1/48000
#media_type 0: audio
#codec_id 0: pcm_s24le
#sample_rate 0: 48000
#channel_layout_name 0: 5.1(side)
0,      -1024,      -1024,     1024,    18432, 0x00000000
0,          0,          0,     1024,    18432, 0x5ca6ebf7
0,       1024,       1024,     1024,    18432, 0xb5520ea3
[PACKET]
pts=0
duration=1024
[SIDE_DATA]
side_data_type=Skip Samples
skip_samples=1024
discard_padding=0
skip_reason=0
discard_reason=0
[/SIDE_DATA]
[/PACKET]
[PACKET]
pts=1024
duration=1024
[/PACKET]
[PACKET]
pts=2048
duration=1024
[/PACKET]
[STREAM]
initial_padding=1024
start_time=0.021333
[/STREAM]
